<mxfile host="app.diagrams.net" modified="2025-10-22T09:09:43.629535" version="20.3.0">
  <diagram id="dfd" name="DFD">
    <mxGraphModel dx="1400" dy="900" grid="1" gridSize="10" guides="1" tooltips="1" connect="1" arrows="1" page="1" pageScale="1" pageWidth="1920" pageHeight="1080">
      <root>
        <mxCell id="0"/><mxCell id="1" parent="0"/>
        <!-- External Entities -->
        <mxCell id="User" value="User (Guest/Host)" style="shape=process;rounded=1;whiteSpace=wrap;html=1;fillColor=#dae8fc;strokeColor=#6c8ebf;" vertex="1" parent="1"><mxGeometry x="60" y="140" width="160" height="60" as="geometry"/></mxCell>
        <mxCell id="Admin" value="Admin" style="shape=process;rounded=1;whiteSpace=wrap;html=1;fillColor=#dae8fc;strokeColor=#6c8ebf;" vertex="1" parent="1"><mxGeometry x="60" y="340" width="160" height="60" as="geometry"/></mxCell>
        <mxCell id="PayProv" value="Payment Provider" style="shape=process;rounded=1;whiteSpace=wrap;html=1;fillColor=#ffe6cc;strokeColor=#d79b00;" vertex="1" parent="1"><mxGeometry x="1060" y="280" width="170" height="60" as="geometry"/></mxCell>
        <mxCell id="Notif" value="Email/SMS Service" style="shape=process;rounded=1;whiteSpace=wrap;html=1;fillColor=#ffe6cc;strokeColor=#d79b00;" vertex="1" parent="1"><mxGeometry x="1060" y="420" width="170" height="60" as="geometry"/></mxCell>

        <!-- System Boundary -->
        <mxCell id="System" value="Airbnb Clone Backend" style="swimlane;rounded=1;childLayout=stackLayout;horizontal=0;container=1;startSize=30;" vertex="1" parent="1">
          <mxGeometry x="260" y="80" width="760" height="520" as="geometry"/>
        </mxCell>

        <!-- Processes -->
        <mxCell id="P1" value="P1 Register/Login" style="ellipse;whiteSpace=wrap;html=1;fillColor=#d5e8d4;strokeColor=#82b366;" vertex="1" parent="System"><mxGeometry x="40" y="40" width="160" height="60" as="geometry"/></mxCell>
        <mxCell id="P2" value="P2 Manage Property" style="ellipse;whiteSpace=wrap;html=1;fillColor=#d5e8d4;strokeColor=#82b366;" vertex="1" parent="System"><mxGeometry x="260" y="40" width="170" height="60" as="geometry"/></mxCell>
        <mxCell id="P3" value="P3 Search Properties" style="ellipse;whiteSpace=wrap;html=1;fillColor=#d5e8d4;strokeColor=#82b366;" vertex="1" parent="System"><mxGeometry x="40" y="160" width="170" height="60" as="geometry"/></mxCell>
        <mxCell id="P4" value="P4 Create Booking" style="ellipse;whiteSpace=wrap;html=1;fillColor=#d5e8d4;strokeColor=#82b366;" vertex="1" parent="System"><mxGeometry x="260" y="160" width="170" height="60" as="geometry"/></mxCell>
        <mxCell id="P5" value="P5 Process Payment" style="ellipse;whiteSpace=wrap;html=1;fillColor=#d5e8d4;strokeColor=#82b366;" vertex="1" parent="System"><mxGeometry x="480" y="160" width="170" height="60" as="geometry"/></mxCell>
        <mxCell id="P6" value="P6 Manage Reviews" style="ellipse;whiteSpace=wrap;html=1;fillColor=#d5e8d4;strokeColor=#82b366;" vertex="1" parent="System"><mxGeometry x="40" y="280" width="170" height="60" as="geometry"/></mxCell>
        <mxCell id="P7" value="P7 Send Notifications" style="ellipse;whiteSpace=wrap;html=1;fillColor=#d5e8d4;strokeColor=#82b366;" vertex="1" parent="System"><mxGeometry x="480" y="280" width="180" height="60" as="geometry"/></mxCell>

        <!-- Data Stores -->
        <mxCell id="D1" value="D1 Users" style="shape=datastore;whiteSpace=wrap;html=1;fillColor=#e1d5e7;strokeColor=#9673a6;" vertex="1" parent="System"><mxGeometry x="40" y="380" width="150" height="60" as="geometry"/></mxCell>
        <mxCell id="D2" value="D2 Properties" style="shape=datastore;whiteSpace=wrap;html=1;fillColor=#e1d5e7;strokeColor=#9673a6;" vertex="1" parent="System"><mxGeometry x="230" y="380" width="150" height="60" as="geometry"/></mxCell>
        <mxCell id="D3" value="D3 Bookings" style="shape=datastore;whiteSpace=wrap;html=1;fillColor=#e1d5e7;strokeColor=#9673a6;" vertex="1" parent="System"><mxGeometry x="420" y="380" width="150" height="60" as="geometry"/></mxCell>
        <mxCell id="D4" value="D4 Payments" style="shape=datastore;whiteSpace=wrap;html=1;fillColor=#e1d5e7;strokeColor=#9673a6;" vertex="1" parent="System"><mxGeometry x="610" y="380" width="150" height="60" as="geometry"/></mxCell>
        <mxCell id="D5" value="D5 Reviews" style="shape=datastore;whiteSpace=wrap;html=1;fillColor=#e1d5e7;strokeColor=#9673a6;" vertex="1" parent="System"><mxGeometry x="610" y="460" width="150" height="60" as="geometry"/></mxCell>

        <!-- Flows -->
        <mxCell id="f1" edge="1" source="User" target="P1" value="credentials" style="endArrow=block;strokeColor=#6c8ebf;" parent="1"><mxGeometry relative="1" as="geometry"/></mxCell>
        <mxCell id="f2" edge="1" source="P1" target="D1" value="create/update user" style="endArrow=block;strokeColor=#82b366;" parent="1"><mxGeometry relative="1" as="geometry"/></mxCell>
        <mxCell id="f3" edge="1" source="P1" target="User" value="JWT/session" style="endArrow=block;strokeColor=#82b366;" parent="1"><mxGeometry relative="1" as="geometry"/></mxCell>

        <mxCell id="f4" edge="1" source="User" target="P2" value="property data/images" style="endArrow=block;strokeColor=#6c8ebf;" parent="1"><mxGeometry relative="1" as="geometry"/></mxCell>
        <mxCell id="f5" edge="1" source="P2" target="D2" value="insert/update property" style="endArrow=block;strokeColor=#82b366;" parent="1"><mxGeometry relative="1" as="geometry"/></mxCell>

        <mxCell id="f6" edge="1" source="User" target="P3" value="search filters" style="endArrow=block;strokeColor=#6c8ebf;" parent="1"><mxGeometry relative="1" as="geometry"/></mxCell>
        <mxCell id="f7" edge="1" source="P3" target="D2" value="query properties" style="endArrow=block;strokeColor=#82b366;" parent="1"><mxGeometry relative="1" as="geometry"/></mxCell>
        <mxCell id="f8" edge="1" source="P3" target="User" value="results" style="endArrow=block;strokeColor=#82b366;" parent="1"><mxGeometry relative="1" as="geometry"/></mxCell>

        <mxCell id="f9" edge="1" source="User" target="P4" value="booking request" style="endArrow=block;strokeColor=#6c8ebf;" parent="1"><mxGeometry relative="1" as="geometry"/></mxCell>
        <mxCell id="f10" edge="1" source="P4" target="D3" value="create booking" style="endArrow=block;strokeColor=#82b366;" parent="1"><mxGeometry relative="1" as="geometry"/></mxCell>

        <mxCell id="f11" edge="1" source="P5" target="PayProv" value="payment intent" style="endArrow=block;strokeColor=#d79b00;" parent="1"><mxGeometry relative="1" as="geometry"/></mxCell>
        <mxCell id="f12" edge="1" source="PayProv" target="P5" value="status/webhook" style="endArrow=block;strokeColor=#d79b00;" parent="1"><mxGeometry relative="1" as="geometry"/></mxCell>
        <mxCell id="f13" edge="1" source="P5" target="D4" value="record payment" style="endArrow=block;strokeColor=#82b366;" parent="1"><mxGeometry relative="1" as="geometry"/></mxCell>
        <mxCell id="f14" edge="1" source="P5" target="D3" value="update booking status" style="endArrow=block;strokeColor=#82b366;" parent="1"><mxGeometry relative="1" as="geometry"/></mxCell>

        <mxCell id="f15" edge="1" source="User" target="P6" value="review data" style="endArrow=block;strokeColor=#6c8ebf;" parent="1"><mxGeometry relative="1" as="geometry"/></mxCell>
        <mxCell id="f16" edge="1" source="P6" target="D5" value="insert review" style="endArrow=block;strokeColor=#82b366;" parent="1"><mxGeometry relative="1" as="geometry"/></mxCell>

        <mxCell id="f17" edge="1" source="P7" target="Notif" value="email/sms" style="endArrow=block;strokeColor=#d79b00;" parent="1"><mxGeometry relative="1" as="geometry"/></mxCell>
        <mxCell id="f18" edge="1" source="P4" target="P7" value="booking created" style="endArrow=block;strokeColor=#82b366;" parent="1"><mxGeometry relative="1" as="geometry"/></mxCell>
        <mxCell id="f19" edge="1" source="P5" target="P7" value="payment confirmed" style="endArrow=block;strokeColor=#82b366;" parent="1"><mxGeometry relative="1" as="geometry"/></mxCell>
      </root>
    </mxGraphModel>
  </diagram>
</mxfile>
